<svg aria-hidden="true" style="position: absolute; width: 0; height: 0; overflow: hidden;" version="1.1" xmlns="http://www.w3.org/2000/svg" xmlns:xlink="http://www.w3.org/1999/xlink">
<defs>
<symbol id="icon-filter_list_off" viewBox="0 0 32 32">
<path d="M25.6 27.299l-22.6-22.598 1.701-1.701 22.598 22.6zM4.8 9.501v-2.4h3v2.4zM8 15.501v-2.4h5.8v2.4zM14.6 9.501l-2.4-2.4h15v2.4zM12.8 21.501v-2.4h6.4v2.4zM20.6 15.501l-2.4-2.4h5.8v2.4z"></path>
</symbol>
<symbol id="icon-call" viewBox="0 0 32 32">
<path d="M26.6 28q-4.3 0-8.383-1.917-4.084-1.916-7.233-5.067-3.151-3.149-5.067-7.233-1.917-4.083-1.917-8.383 0-0.6 0.4-1t1-0.4h5.4q0.467 0 0.833 0.3t0.433 0.767l0.867 4.667q0.067 0.467-0.016 0.849-0.084 0.384-0.384 0.684l-3.233 3.267q1.4 2.4 3.517 4.5 2.116 2.1 4.649 3.633l3.133-3.133q0.3-0.3 0.784-0.451 0.483-0.149 0.949-0.083l4.6 0.933q0.467 0.1 0.767 0.449 0.3 0.351 0.3 0.817v5.4q0 0.6-0.4 1t-1 0.4zM8.033 12l2.2-2.2-0.567-3.133h-2.967q0.167 1.367 0.467 2.7t0.867 2.633zM19.967 23.933q1.3 0.567 2.651 0.9 1.349 0.333 2.716 0.433v-2.933l-3.133-0.633z"></path>
</symbol>
<symbol id="icon-account" viewBox="0 0 32 32">
<path d="M6.667 23.8q1.8-1.767 4.184-2.784 2.383-1.016 5.149-1.016t5.151 1.016q2.383 1.017 4.183 2.784v-17.133h-18.667zM16 17.333q1.933 0 3.3-1.367t1.367-3.3-1.367-3.3-3.3-1.367-3.3 1.367-1.367 3.3 1.367 3.3 3.3 1.367zM6.667 28q-1.1 0-1.884-0.783-0.783-0.784-0.783-1.884v-18.667q0-1.1 0.783-1.884 0.784-0.783 1.884-0.783h18.667q1.1 0 1.884 0.783 0.783 0.784 0.783 1.884v18.667q0 1.1-0.783 1.884-0.784 0.783-1.884 0.783zM9.333 25.333h13.333v-0.333q-1.4-1.167-3.1-1.749-1.7-0.584-3.567-0.584t-3.567 0.584q-1.7 0.583-3.1 1.749v0.333zM16 14.667q-0.833 0-1.416-0.584-0.584-0.583-0.584-1.416t0.584-1.416q0.583-0.584 1.416-0.584t1.416 0.584q0.584 0.583 0.584 1.416t-0.584 1.416q-0.583 0.584-1.416 0.584z"></path>
</symbol>
<symbol id="icon-person_add" viewBox="0 0 32 32">
<path d="M24 18.667v-4h-4v-2.667h4v-4h2.667v4h4v2.667h-4v4zM12 16q-2.2 0-3.767-1.567t-1.567-3.767 1.567-3.767 3.767-1.567 3.767 1.567 1.567 3.767-1.567 3.767-3.767 1.567zM1.333 26.667v-3.733q0-1.133 0.584-2.084 0.583-0.949 1.549-1.449 2.067-1.033 4.2-1.551 2.133-0.516 4.333-0.516t4.333 0.516q2.133 0.517 4.2 1.551 0.967 0.5 1.549 1.449 0.584 0.951 0.584 2.084v3.733zM4 24h16v-1.067q0-0.367-0.183-0.667-0.184-0.3-0.484-0.467-1.8-0.9-3.633-1.351-1.833-0.449-3.7-0.449t-3.7 0.449q-1.833 0.451-3.633 1.351-0.3 0.167-0.483 0.467-0.184 0.3-0.184 0.667zM12 13.333q1.1 0 1.884-0.784 0.783-0.783 0.783-1.883t-0.783-1.883q-0.784-0.784-1.884-0.784t-1.883 0.784q-0.784 0.783-0.784 1.883t0.784 1.883q0.783 0.784 1.883 0.784z"></path>
</symbol>
<symbol id="icon-close" viewBox="0 0 32 32">
<path d="M8.533 25.333l-1.867-1.867 7.467-7.467-7.467-7.467 1.867-1.867 7.467 7.467 7.467-7.467 1.867 1.867-7.467 7.467 7.467 7.467-1.867 1.867-7.467-7.467z"></path>
</symbol>
<symbol id="icon-delete" viewBox="0 0 32 32">
<path d="M9.333 28q-1.1 0-1.883-0.783-0.784-0.784-0.784-1.884v-17.333h-1.333v-2.667h6.667v-1.333h8v1.333h6.667v2.667h-1.333v17.333q0 1.1-0.783 1.884-0.784 0.783-1.884 0.783zM22.667 8h-13.333v17.333h13.333zM12 22.667h2.667v-12h-2.667zM17.333 22.667h2.667v-12h-2.667zM9.333 8v17.333z"></path>
</symbol>
</defs>
</svg>
